{
  "accessors": [
    {
      "bufferView": 2,
      "componentType": 5126,
      "count": 6019,
      "max": [
        0.44952985644340515,
        0.16708576679229736,
        0.6846007704734802
      ],
      "min": [
        -0.4495362937450409,
        -0.09159143269062042,
        -0.3106183409690857
      ],
      "type": "VEC3"
    },
    {
      "bufferView": 2,
      "byteOffset": 72228,
      "componentType": 5126,
      "count": 6019,
      "max": [
        0.9999762773513794,
        0.9999947547912598,
        0.9998382925987244
      ],
      "min": [
        -0.999975323677063,
        -0.9999921321868896,
        -0.9999855756759644
      ],
      "type": "VEC3"
    },
    {
      "bufferView": 1,
      "componentType": 5126,
      "count": 6019,
      "max": [
        0.9995574951171875,
        0.9995559453964233
      ],
      "min": [
        0.00044247787445783615,
        0.00044405460357666016
      ],
      "type": "VEC2"
    },
    {
      "bufferView": 0,
      "componentType": 5125,
      "count": 19620,
      "type": "SCALAR"
    }
  ],
  "asset": {
    "extras": {
      "author": "AshCreations3D (https://sketchfab.com/Fancy_Models_Collections)",
      "license": "SKETCHFAB Standard (https://sketchfab.com/licenses)",
      "source": "https://sketchfab.com/3d-models/cyber-combat-fighter-jet-ed262d0f67674dc09ec68a3d7df3caf2",
      "title": "Cyber Combat Fighter Jet"
    },
    "generator": "Sketchfab-16.60.0",
    "version": "2.0"
  },
  "bufferViews": [
    {
      "buffer": 0,
      "byteLength": 78480,
      "name": "floatBufferViews",
      "target": 34963
    },
    {
      "buffer": 0,
      "byteLength": 48152,
      "byteOffset": 78480,
      "byteStride": 8,
      "name": "floatBufferViews",
      "target": 34962
    },
    {
      "buffer": 0,
      "byteLength": 144456,
      "byteOffset": 126632,
      "byteStride": 12,
      "name": "floatBufferViews",
      "target": 34962
    }
  ],
  "buffers": [
    {
      "byteLength": 271088,
      "uri": "scene.bin"
    }
  ],
  "images": [
    {
      "uri": "textures/Material_0.009_baseColor.png"
    }
  ],
  "materials": [
    {
      "doubleSided": true,
      "name": "Material_0.009",
      "pbrMetallicRoughness": {
        "baseColorTexture": {
          "index": 0
        },
        "roughnessFactor": 0.903602
      }
    }
  ],
  "meshes": [
    {
      "name": "Object_0",
      "primitives": [
        {
          "attributes": {
            "NORMAL": 1,
            "POSITION": 0,
            "TEXCOORD_0": 2
          },
          "indices": 3,
          "material": 0,
          "mode": 4
        }
      ]
    }
  ],
  "nodes": [
    {
      "children": [
        1
      ],
      "matrix": [
        1.0,
        0.0,
        0.0,
        0.0,
        0.0,
        2.220446049250313e-16,
        -1.0,
        0.0,
        0.0,
        1.0,
        2.220446049250313e-16,
        0.0,
        0.0,
        0.0,
        0.0,
        1.0
      ],
      "name": "Sketchfab_model"
    },
    {
      "children": [
        2
      ],
      "name": "root"
    },
    {
      "children": [
        3
      ],
      "matrix": [
        1.0,
        0.0,
        0.0,
        0.0,
        0.0,
        2.220446049250313e-16,
        1.0,
        0.0,
        0.0,
        -1.0,
        2.220446049250313e-16,
        0.0,
        0.0,
        0.0,
        0.0,
        1.0
      ],
      "name": "GLTF_SceneRootNode"
    },
    {
      "children": [
        4
      ],
      "matrix": [
        19.441207885742188,
        0.0,
        0.0,
        0.0,
        0.0,
        19.441207885742188,
        0.0,
        0.0,
        0.0,
        0.0,
        19.441207885742188,
        0.0,
        29.994430541992188,
        0.7727782130241394,
        -3.670125961303711,
        1.0
      ],
      "name": "Model No-10_1"
    },
    {
      "children": [
        5
      ],
      "name": "Aeroplane 2_0"
    },
    {
      "mesh": 0,
      "name": "Object_5"
    }
  ],
  "samplers": [
    {
      "magFilter": 9729,
      "minFilter": 9987,
      "wrapS": 10497,
      "wrapT": 10497
    }
  ],
  "scene": 0,
  "scenes": [
    {
      "name": "Sketchfab_Scene",
      "nodes": [
        0
      ]
    }
  ],
  "textures": [
    {
      "sampler": 0,
      "source": 0
    }
  ]
}
